<?xml version="1.0" standalone="no"?><!DOCTYPE svg PUBLIC "-//W3C//DTD SVG 1.1//EN" "http://www.w3.org/Graphics/SVG/1.1/DTD/svg11.dtd"><svg t="1537342866916" class="icon" style="" viewBox="0 0 1024 1024" version="1.1" xmlns="http://www.w3.org/2000/svg" p-id="29376" xmlns:xlink="http://www.w3.org/1999/xlink" width="32" height="32"><defs><style type="text/css"></style></defs><path d="M512.014838 959.057919c-232.223992 0-447.091688-15.871479-447.091688-130.987287 0-89.731674 142.043087-190.144618 316.589448-223.856417 11.290137-2.651386 21.211091-12.290931 24.961508-25.03007 2.444679-8.300037 4.200672-24.758893-11.811-41.323151-0.651846-0.688685-1.270946-1.376347-1.823532-2.136663-56.125275-55.989175-90.904383-145.414881-90.904383-234.459916 0-136.947022 88.319511-236.323357 210.047924-236.323357 121.68748 0 210.012108 99.412151 210.012108 236.323357 0 90.905406-36.123732 182.01752-94.212732 237.798964-14.838963 15.636119-13.118785 31.887244-10.671037 40.082904 3.715625 12.567223 13.531178 22.175045 25.650193 25.103748 173.894516 33.330106 316.312132 133.842311 316.312132 223.786833C959.074803 936.783613 780.33084 959.057919 512.014838 959.057919L512.014838 959.057919zM434.574095 505.422188c22.279423 25.071002 30.198789 57.746192 21.143553 88.325651-8.986675 30.370705-33.330106 53.649897-63.529919 60.637032-171.34546 33.127492-275.922237 123.412774-275.922237 173.685761 0 52.857858 133.155672 79.649038 395.750369 79.649038 262.562974 0 395.717623-26.79118 395.717623-79.649038 0-50.41011-104.919585-140.866285-275.782044-173.613106-31.026644-7.440459-55.129598-30.615275-64.013943-60.741409-9.331529-31.579229-0.552585-65.529459 23.555485-90.841961 48.482201-46.553269 79.233576-125.370359 79.233576-201.576995 0-108.916619-65.25419-185.012737-158.674882-185.012737-93.452415 0-158.705582 76.096119-158.705582 185.012737 0 75.92932 30.611182 154.505933 77.992305 200.268186C432.541809 502.773871 433.609117 504.045841 434.574095 505.422188L434.574095 505.422188zM434.574095 505.422188" p-id="29377"></path></svg>