<?xml version="1.0" standalone="no"?><!DOCTYPE svg PUBLIC "-//W3C//DTD SVG 1.1//EN" "http://www.w3.org/Graphics/SVG/1.1/DTD/svg11.dtd"><svg t="1540024011291" class="icon" style="" viewBox="0 0 1024 1024" version="1.1" xmlns="http://www.w3.org/2000/svg" p-id="2462" xmlns:xlink="http://www.w3.org/1999/xlink" width="128" height="128"><defs><style type="text/css"></style></defs><path d="M512 896c-32.768 0-64.512-3.072-95.744-8.192L192 1024V797.184C75.264 715.264 0 589.312 0 448 0 200.704 229.376 0 512 0s512 200.704 512 448-229.376 448-512 448z m0-832C264.704 64 64 236.032 64 448c0 130.048 75.776 244.736 190.976 314.368l-2.048 148.48 150.528-90.624C438.272 827.392 474.112 832 511.488 832c247.296 0 448-172.032 448-384C960 236.032 759.296 64 512 64z m256 448c-35.328 0-64-28.672-64-64s28.672-64 64-64 64 28.672 64 64-28.672 64-64 64z m-256 0c-35.328 0-64-28.672-64-64s28.672-64 64-64 64 28.672 64 64-28.672 64-64 64z m-256 0c-35.328 0-64-28.672-64-64s28.672-64 64-64 64 28.672 64 64-28.672 64-64 64z m0 0" p-id="2463"></path></svg>